<svg width="32" height="30" viewBox="0 0 32 30" fill="none" xmlns="http://www.w3.org/2000/svg">
<g clip-path="url(#clip0_1_101)">
<g clip-path="url(#clip1_1_101)">
<path d="M22.3749 10.5874H30.2855L25.2447 5.54348C23.6219 3.9206 21.6004 2.75355 19.3834 2.15964C17.1666 1.56574 14.8323 1.56591 12.6155 2.16014C10.3987 2.75438 8.37738 3.92174 6.75477 5.54485C5.13217 7.16796 3.96544 9.18966 3.37189 11.4067M1.71436 26.9029V18.9924M1.71436 18.9924H9.62487M1.71436 18.9924L6.7535 24.0363C8.37636 25.6591 10.3979 26.8262 12.6148 27.4201C14.8317 28.014 17.1659 28.0138 19.3827 27.4196C21.5995 26.8254 23.6209 25.658 25.2435 24.0349C26.8661 22.4117 28.0328 20.3901 28.6263 18.1731M30.2855 2.67686V10.5842" stroke="#FF47C1" stroke-width="2.37696" stroke-linecap="round" stroke-linejoin="round"/>
</g>
</g>
<defs>
<clipPath id="clip0_1_101">
<rect width="32" height="29.58" fill="white"/>
</clipPath>
<clipPath id="clip1_1_101">
<rect width="31.9947" height="29.58" fill="white" transform="translate(0.00244141)"/>
</clipPath>
</defs>
</svg>
