<svg width="32" height="28" viewBox="0 0 32 28" fill="none" xmlns="http://www.w3.org/2000/svg">
<g clip-path="url(#clip0_1_107)">
<g clip-path="url(#clip1_1_107)">
<g clip-path="url(#clip2_1_107)">
<path d="M1.23193 23.1352C9.3136 23.1287 17.3601 24.1988 25.1591 26.3176C26.2603 26.6175 27.3599 25.7996 27.3599 24.6575V23.1352M3.50393 1.55125V2.68725C3.50393 2.98854 3.38425 3.27749 3.17121 3.49053C2.95816 3.70357 2.66922 3.82325 2.36793 3.82325H1.23193M1.23193 3.82325V3.25525C1.23193 2.31464 1.99533 1.55125 2.93593 1.55125H28.4959M1.23193 3.82325V17.4552M28.4959 1.55125V2.68725C28.4959 3.31433 29.0049 3.82325 29.6319 3.82325H30.7679M28.4959 1.55125H29.064C30.0046 1.55125 30.7679 2.31464 30.7679 3.25525V18.0232C30.7679 18.9638 30.0046 19.7273 29.064 19.7273H28.4959M1.23193 17.4552V18.0232C1.23193 18.4752 1.41146 18.9086 1.73102 19.2282C2.05059 19.5477 2.48401 19.7273 2.93593 19.7273H3.50393M1.23193 17.4552H2.36793C2.66922 17.4552 2.95816 17.575 3.17121 17.788C3.38425 18.001 3.50393 18.29 3.50393 18.5913V19.7273M28.4959 19.7273V18.5913C28.4959 18.29 28.6156 18.001 28.8286 17.788C29.0417 17.575 29.3306 17.4552 29.6319 17.4552H30.7679M28.4959 19.7273H3.50393M20.5439 10.6392C20.5439 11.8444 20.0652 13.0002 19.213 13.8523C18.3608 14.7045 17.2051 15.1832 15.9999 15.1832C14.7948 15.1832 13.639 14.7045 12.7868 13.8523C11.9347 13.0002 11.4559 11.8444 11.4559 10.6392C11.4559 9.43411 11.9347 8.27832 12.7868 7.42615C13.639 6.57397 14.7948 6.09525 15.9999 6.09525C17.2051 6.09525 18.3608 6.57397 19.213 7.42615C20.0652 8.27832 20.5439 9.43411 20.5439 10.6392ZM25.0879 10.6392H25.1V10.6514H25.0879V10.6392ZM6.91195 10.6392H6.92407V10.6514H6.91195V10.6392Z" stroke="#FF47C1" stroke-width="2.42287" stroke-linecap="round" stroke-linejoin="round"/>
</g>
</g>
</g>
<defs>
<clipPath id="clip0_1_107">
<rect width="32" height="27.69" fill="white"/>
</clipPath>
<clipPath id="clip1_1_107">
<rect width="32" height="27.69" fill="white"/>
</clipPath>
<clipPath id="clip2_1_107">
<rect width="31.9973" height="27.69" fill="white" transform="translate(0.00146484)"/>
</clipPath>
</defs>
</svg>
