<svg width="32" height="32" viewBox="0 0 32 32" fill="none" xmlns="http://www.w3.org/2000/svg">
<g clip-path="url(#clip0_1_128)">
<g clip-path="url(#clip1_1_128)">
<g clip-path="url(#clip2_1_128)">
<path d="M21.0913 21.0912C20.4227 21.7598 19.629 22.2902 18.7554 22.652C17.8819 23.0138 16.9456 23.2001 16.0001 23.2001C15.0546 23.2001 14.1183 23.0138 13.2448 22.652C12.3712 22.2902 11.5775 21.7598 10.9089 21.0912M30.4001 16C30.4001 17.891 30.0276 19.7636 29.304 21.5107C28.5803 23.2577 27.5196 24.8452 26.1824 26.1823C24.8453 27.5195 23.2578 28.5802 21.5108 29.3039C19.7637 30.0275 17.8911 30.4 16.0001 30.4C14.1091 30.4 12.2365 30.0275 10.4894 29.3039C8.74237 28.5802 7.15491 27.5195 5.81776 26.1823C4.4806 24.8452 3.4199 23.2577 2.69623 21.5107C1.97256 19.7636 1.6001 17.891 1.6001 16C1.6001 12.1809 3.11724 8.51821 5.81776 5.81767C8.51831 3.11715 12.181 1.60001 16.0001 1.60001C19.8192 1.60001 23.4819 3.11715 26.1824 5.81767C28.883 8.51821 30.4001 12.1809 30.4001 16ZM12.4001 12.4C12.4001 13.0624 12.1313 13.6 11.8001 13.6C11.4689 13.6 11.2001 13.0624 11.2001 12.4C11.2001 11.7376 11.4689 11.2 11.8001 11.2C12.1313 11.2 12.4001 11.7376 12.4001 12.4ZM11.8001 12.4H11.8129V12.424H11.8001V12.4ZM20.8001 12.4C20.8001 13.0624 20.5313 13.6 20.2001 13.6C19.8689 13.6 19.6001 13.0624 19.6001 12.4C19.6001 11.7376 19.8689 11.2 20.2001 11.2C20.5313 11.2 20.8001 11.7376 20.8001 12.4ZM20.2001 12.4H20.2129V12.424H20.2001V12.4Z" stroke="#FF47C1" stroke-width="2.52" stroke-linecap="round" stroke-linejoin="round"/>
</g>
</g>
</g>
<defs>
<clipPath id="clip0_1_128">
<rect width="32" height="32" fill="white"/>
</clipPath>
<clipPath id="clip1_1_128">
<rect width="32" height="32" fill="white"/>
</clipPath>
<clipPath id="clip2_1_128">
<rect width="32" height="32" fill="white"/>
</clipPath>
</defs>
</svg>
