<svg width="32" height="31" viewBox="0 0 32 31" fill="none" xmlns="http://www.w3.org/2000/svg">
<g clip-path="url(#clip0_1_121)">
<g clip-path="url(#clip1_1_121)">
<g clip-path="url(#clip2_1_121)">
<path d="M28.3015 10.0625C29.6196 10.486 30.5381 11.7445 30.5381 13.1893V19.5801C30.5381 21.274 29.2752 22.7114 27.5858 22.85C27.0788 22.8903 26.5718 22.9276 26.0649 22.9574V27.5663L21.5916 23.0931C19.5727 23.0931 17.5746 23.0111 15.5974 22.85C15.167 22.8153 14.7483 22.6924 14.3672 22.4892M28.3015 10.0625C28.0711 9.98833 27.8329 9.94079 27.5917 9.92087C23.5985 9.58933 19.5847 9.58933 15.5914 9.92087C13.905 10.061 12.6451 11.4969 12.6451 13.1893V19.5801C12.6451 20.8281 13.331 21.936 14.3672 22.4892M28.3015 10.0625V7.26821C28.3015 4.85116 26.5837 2.75618 24.186 2.44455C21.1008 2.04462 17.9928 1.8444 14.8817 1.84513C11.7281 1.84513 8.62214 2.04941 5.57731 2.44455C3.17965 2.75618 1.46191 4.85116 1.46191 7.26821V16.5517C1.46191 18.9688 3.17965 21.0637 5.57731 21.3754C6.43767 21.4872 7.30252 21.5841 8.17183 21.6647V28.6847L14.3672 22.4892" stroke="#FF47C1" stroke-width="2.86219" stroke-linecap="round" stroke-linejoin="round"/>
</g>
</g>
</g>
<defs>
<clipPath id="clip0_1_121">
<rect width="32" height="30.53" fill="white"/>
</clipPath>
<clipPath id="clip1_1_121">
<rect width="32" height="30.53" fill="white"/>
</clipPath>
<clipPath id="clip2_1_121">
<rect width="31.9838" height="30.53" fill="white" transform="translate(0.00830078)"/>
</clipPath>
</defs>
</svg>
