<svg width="23" height="23" viewBox="0 0 26 26" fill="none" xmlns="http://www.w3.org/2000/svg">
<path d="M0.541748 2.02075C0.541748 1.73896 0.65369 1.46871 0.852947 1.26945C1.0522 1.07019 1.32246 0.958252 1.60425 0.958252H2.39475C3.74058 0.958252 4.54808 1.8635 5.0085 2.705C5.31591 3.266 5.53833 3.91625 5.71258 4.50559L5.85425 4.49992H23.5597C24.7356 4.49992 25.5856 5.62475 25.2626 6.75667L22.6729 15.8361C22.4407 16.6505 21.9495 17.367 21.2737 17.8772C20.5978 18.3875 19.7741 18.6636 18.9272 18.6638H10.5009C9.64736 18.6638 8.81742 18.3835 8.13866 17.866C7.45989 17.3485 6.96987 16.6223 6.74391 15.7993L5.66725 11.8723L3.88225 5.85425L3.88083 5.84292C3.65983 5.03967 3.453 4.28742 3.14416 3.72642C2.84808 3.181 2.61008 3.08325 2.39616 3.08325H1.60425C1.32246 3.08325 1.0522 2.97131 0.852947 2.77205C0.65369 2.5728 0.541748 2.30254 0.541748 2.02075ZM7.7285 11.3566L8.79242 15.2368C9.00492 16.0047 9.70333 16.5388 10.5009 16.5388H18.9272C19.3122 16.5387 19.6866 16.4133 19.9939 16.1815C20.3011 15.9496 20.5245 15.624 20.6301 15.2538L23.0908 6.62492H6.32883L7.70867 11.2815L7.7285 11.3566ZM12.5834 22.9166C12.5834 23.668 12.2849 24.3887 11.7536 24.9201C11.2222 25.4514 10.5015 25.7499 9.75008 25.7499C8.99864 25.7499 8.27797 25.4514 7.74661 24.9201C7.21526 24.3887 6.91675 23.668 6.91675 22.9166C6.91675 22.1651 7.21526 21.4445 7.74661 20.9131C8.27797 20.3818 8.99864 20.0833 9.75008 20.0833C10.5015 20.0833 11.2222 20.3818 11.7536 20.9131C12.2849 21.4445 12.5834 22.1651 12.5834 22.9166ZM10.4584 22.9166C10.4584 22.7287 10.3838 22.5486 10.2509 22.4157C10.1181 22.2829 9.93794 22.2083 9.75008 22.2083C9.56222 22.2083 9.38205 22.2829 9.24921 22.4157C9.11638 22.5486 9.04175 22.7287 9.04175 22.9166C9.04175 23.1044 9.11638 23.2846 9.24921 23.4175C9.38205 23.5503 9.56222 23.6249 9.75008 23.6249C9.93794 23.6249 10.1181 23.5503 10.2509 23.4175C10.3838 23.2846 10.4584 23.1044 10.4584 22.9166ZM22.5001 22.9166C22.5001 23.668 22.2016 24.3887 21.6702 24.9201C21.1389 25.4514 20.4182 25.7499 19.6667 25.7499C18.9153 25.7499 18.1946 25.4514 17.6633 24.9201C17.1319 24.3887 16.8334 23.668 16.8334 22.9166C16.8334 22.1651 17.1319 21.4445 17.6633 20.9131C18.1946 20.3818 18.9153 20.0833 19.6667 20.0833C20.4182 20.0833 21.1389 20.3818 21.6702 20.9131C22.2016 21.4445 22.5001 22.1651 22.5001 22.9166ZM20.3751 22.9166C20.3751 22.7287 20.3005 22.5486 20.1676 22.4157C20.0348 22.2829 19.8546 22.2083 19.6667 22.2083C19.4789 22.2083 19.2987 22.2829 19.1659 22.4157C19.033 22.5486 18.9584 22.7287 18.9584 22.9166C18.9584 23.1044 19.033 23.2846 19.1659 23.4175C19.2987 23.5503 19.4789 23.6249 19.6667 23.6249C19.8546 23.6249 20.0348 23.5503 20.1676 23.4175C20.3005 23.2846 20.3751 23.1044 20.3751 22.9166Z" fill="#333333"/>
</svg>
