<svg width="32" height="32" viewBox="0 0 32 32" fill="none" xmlns="http://www.w3.org/2000/svg">
<g clip-path="url(#clip0_1_135)">
<g clip-path="url(#clip1_1_135)">
<g clip-path="url(#clip2_1_135)">
<path d="M15.9999 30.7692C19.2738 30.7691 22.4548 29.6815 25.0437 27.6776C27.6325 25.6736 29.4825 22.8665 30.3031 19.6972M15.9999 30.7692C12.7261 30.7691 9.54505 29.6815 6.95619 27.6776C4.36738 25.6736 2.51741 22.8665 1.69677 19.6972M15.9999 30.7692C20.0779 30.7692 23.3846 24.1559 23.3846 16C23.3846 7.84413 20.0779 1.23078 15.9999 1.23078M15.9999 30.7692C11.922 30.7692 8.61533 24.1559 8.61533 16C8.61533 7.84413 11.922 1.23078 15.9999 1.23078M30.3031 19.6972C30.6067 18.5157 30.7692 17.2767 30.7692 16C30.7732 13.4599 30.1191 10.962 28.8705 8.74998M30.3031 19.6972C25.9268 22.1233 21.0038 23.3925 15.9999 23.3846C10.811 23.3846 5.93554 22.0472 1.69677 19.6972M1.69677 19.6972C1.3862 18.4894 1.22961 17.2471 1.23072 16C1.23072 13.3662 1.91995 10.8915 3.12938 8.74998M15.9999 1.23078C18.6195 1.22969 21.192 1.92552 23.4538 3.24688C25.7156 4.56825 27.5851 6.46758 28.8705 8.74998M15.9999 1.23078C13.3805 1.22969 10.8079 1.92552 8.5461 3.24688C6.28431 4.56825 4.41481 6.46758 3.12938 8.74998M28.8705 8.74998C25.2975 11.8448 20.727 13.5453 15.9999 13.5385C11.0801 13.5385 6.58044 11.7334 3.12938 8.74998" stroke="#FF47C1" stroke-width="2.42308" stroke-linecap="round" stroke-linejoin="round"/>
</g>
</g>
</g>
<defs>
<clipPath id="clip0_1_135">
<rect width="32" height="32" fill="white"/>
</clipPath>
<clipPath id="clip1_1_135">
<rect width="32" height="32" fill="white"/>
</clipPath>
<clipPath id="clip2_1_135">
<rect width="32" height="32" fill="white"/>
</clipPath>
</defs>
</svg>
